%
T1C.01F095S3
X01076Y012129
X011254Y01126
X012254Y01126
X01254Y012285
X013254Y01126
X013493Y012911
X01406Y01351
X014254Y01126
X01503Y01316
X015254Y01126
X016254Y01126
X017254Y01126
X01749Y01321
X01805Y01301
X018215Y011536
X019728Y012978
X02113Y01225
X02114Y0125
X0214Y0125
X02141Y01224
X02174Y01346
X0235Y01167
X023659Y01232
X024659Y01232
X02507Y01365
X02617Y01234
X026682Y01334
X02727Y01232
X02749Y01338
X02758Y01176
X02807Y01172
X02809Y01337
X02901Y01206
X03089Y01211
X03199Y01206
X02995Y01552
X02981Y01444
X02978Y01583
X02799Y01496
X027899Y015508
X02625Y01551
X0258Y01407
X02544Y01443
X02475Y015
X02458Y01572
X02448Y0153
X02432Y01434
X0241Y01625
X02314Y01583
X02295Y01547
X02285Y01389
X02281Y01582
X02264Y01546
X02159Y01603
X02077Y015294
X01913Y01567
X01899Y0143
X01792Y01378
X017038Y0159
X01555Y0153
X01535Y0151
X01473Y01489
X01446Y01488
X0141Y0154
X010866Y016942
X012119Y017218
X012507Y01814
X013159Y016297
X013507Y01814
X014507Y01814
X015507Y01814
X016507Y01814
X01752Y01769
X01852Y018
X0192Y01731
X019665Y017265
X02057Y01769
X02165Y01708
X02167Y01771
X0241Y01645
X024603Y01694
X025593Y0168
X027668Y01725
X02846Y01717
X02944Y0168
X02973Y01681
T2C.01969F095S3
X012915Y016654G85X013367Y016654
X012887Y012244G85X01334Y012244
X011072Y016654G85X011525Y016654
X011104Y012244G85X011556Y012244
T3C.02402F197S55
X013143Y012973
X013143Y015925
T4C.035F197S55
X020809Y013884
X020809Y015853
X020809Y014869
X024353Y017585
X025353Y017585
X026353Y017585
X027353Y017585
M30
